<svg width="40" height="42" viewBox="0 0 40 42" fill="none" xmlns="http://www.w3.org/2000/svg">
<path d="M16 30.8333V18.3125L2.66667 11.6458V29.9792L14 35.6667L13.3542 38.3125L0 31.6458V8.64583L17.3333 0L34.6667 8.64583V14.2708C33.6944 14.4236 32.8056 14.7361 32 15.2083V11.6458L18.6667 18.3125V28.1667L16 30.8333ZM13.0417 5.10417L25.2083 12.0625L30.3542 9.47917L17.3333 2.95833L13.0417 5.10417ZM17.3333 16L22.3333 13.5L10.1667 6.54167L4.3125 9.47917L17.3333 16ZM35.8333 17.4792C36.4167 17.4792 36.9583 17.5833 37.4583 17.7917C37.9583 18 38.4028 18.2847 38.7917 18.6458C39.1806 19.0069 39.4722 19.4444 39.6667 19.9583C39.8611 20.4722 39.9722 21.0208 40 21.6042C40 22.1458 39.8958 22.6736 39.6875 23.1875C39.4792 23.7014 39.1806 24.1528 38.7917 24.5417L23.8542 39.4792L16 41.4375L17.9583 33.5833L32.8958 18.6667C33.2986 18.2639 33.75 17.9653 34.25 17.7708C34.75 17.5764 35.2778 17.4792 35.8333 17.4792ZM36.8958 22.6667C37.1875 22.375 37.3333 22.0208 37.3333 21.6042C37.3333 21.1736 37.1944 20.8264 36.9167 20.5625C36.6389 20.2986 36.2778 20.1597 35.8333 20.1458C35.6389 20.1458 35.4514 20.1736 35.2708 20.2292C35.0903 20.2847 34.9306 20.3889 34.7917 20.5417L20.375 34.9583L19.6667 37.7708L22.4792 37.0625L36.8958 22.6667Z" fill="#F2F2F2"/>
</svg>
