<svg width="195" height="48" viewBox="0 0 195 48" fill="none" xmlns="http://www.w3.org/2000/svg">
<path fill-rule="evenodd" clip-rule="evenodd" d="M146.492 1.90983C145.04 3.94912 145.04 3.95207 146.654 5.97657C147.543 7.09086 148.484 8.00255 148.746 8.00255C149.009 8.00255 149.949 6.98291 150.836 5.737L152.45 3.47072L150.758 1.67026C148.62 -0.604898 148.269 -0.584934 146.492 1.90983ZM0.702537 8.90019C2.07044 10.1749 2.18135 11.2293 2.18135 22.9253V35.5721L7.98275 35.1743C13.5653 34.792 17.3303 33.5284 20.0869 31.1127C21.2669 30.0791 21.3054 30.1744 20.6414 32.491C20.2488 33.8604 19.9271 35.0664 19.9271 35.1706C19.9271 35.2756 21.718 35.3606 23.9066 35.3606H27.8861L26.8968 32.5879C24.9004 26.9935 26.4036 9.36528 28.9176 8.89058C31.1565 8.46838 33.2365 11.6427 33.2365 15.4824C33.2365 18.358 32.8978 19.2526 31.351 20.4697C30.3136 21.2853 29.067 22.0853 28.5804 22.248C27.2968 22.6754 30.88 27.1421 39.1244 35.391C47.2194 43.4904 52.0966 46.3379 58.8444 46.9058L63.1825 47.271L59.4855 45.9231C57.4521 45.1815 54.2298 43.4986 52.3243 42.1832C47.1159 38.5882 34.7153 24.5194 34.7153 22.2051C34.7153 21.8398 35.3808 20.9385 36.1941 20.2028C37.6493 18.8859 37.6729 18.911 37.6729 21.8103C37.6729 27.6641 44.8814 35.3606 50.3641 35.3606C51.9502 35.3606 54.0752 34.6272 55.7182 33.5121C59.0263 31.2665 58.9568 31.2702 59.2489 33.3273C59.4566 34.7861 59.9816 35.019 63.5219 35.2202C67.4371 35.442 67.5199 35.4065 66.2947 34.0526C65.5996 33.2844 65.031 31.6451 65.031 30.4088V28.161L68.1905 31.3205C72.1072 35.2372 76.3417 36.1806 81.7424 34.3403L85.2035 33.1609L84.7281 37.7134C84.4664 40.2171 84.3902 42.1255 84.5595 41.9554C87.8972 38.5904 89.4315 35.5899 89.4315 32.4245C89.4315 30.5146 89.6511 28.7326 89.9195 28.4642C90.1879 28.1958 92.1643 29.6376 94.3116 31.668C97.6301 34.8068 98.6504 35.3606 101.115 35.3606C102.987 35.3606 104.978 34.7063 106.737 33.5121C110.045 31.2665 109.976 31.2702 110.268 33.3273C110.476 34.7861 111.001 35.019 114.541 35.2202C118.456 35.442 118.539 35.4065 117.314 34.0526C116.619 33.2844 116.05 32.0377 116.05 31.2821C116.05 30.0805 116.305 30.1508 118.084 31.8477C122.023 35.6069 126.829 36.3093 132.132 33.9018C135.774 32.2485 136.192 31.5172 133.147 32.1265C130.043 32.7468 124.559 30.0983 122.727 27.0926C120.726 23.8104 120.782 22.055 122.89 22.0373C123.805 22.0291 126.217 21.5833 128.25 21.0457L131.947 20.0689L129.36 19.5351C125.627 18.7654 122.705 17.5417 122.705 16.749C122.705 15.3412 124.97 11.7499 126.562 10.6356C129.073 8.87727 131.434 9.23219 133.696 11.7092L135.731 13.937L137.021 11.2315C137.968 9.24771 138.531 8.74492 139.133 9.34679C139.735 9.94867 139.732 14.3592 139.121 25.8726C138.663 34.5103 138.411 41.7003 138.561 41.8504C139.16 42.4501 155.097 43.6065 158.443 43.2938C160.792 43.0741 162.565 42.4116 163.616 41.3602L165.216 39.7609L162.763 40.2518C160.298 40.745 145.683 39.2677 144.247 38.3804C143.731 38.061 143.674 35.0079 144.076 29.0542L144.673 20.2028L144.78 28.0723L144.887 35.9418L147.66 37.0494L150.433 38.1571L150.802 25.4829C151.006 18.5118 151.441 12.3924 151.77 11.8844C152.873 10.1801 154.569 10.796 154.085 12.7244C153.659 14.4206 153.768 14.4746 156.887 14.1234L160.131 13.7574L159.845 22.8957C159.607 30.4672 159.311 32.3816 158.116 34.0667L156.673 36.1001H161.871C164.731 36.1001 167.069 35.9744 167.069 35.8206C167.069 35.6668 166.528 34.253 165.866 32.6781C164.915 30.414 164.756 28.3814 165.108 22.9623C165.352 19.1935 165.881 15.4957 166.283 14.7452C166.717 13.9341 168.15 13.2191 169.814 12.9825C171.354 12.7636 173.28 12.334 174.094 12.0279C175.326 11.5643 175.242 11.829 173.586 13.6191C170.953 16.4658 170.023 19.1262 170.043 23.763C170.066 29.2391 172.245 33.6482 175.626 35.0604C178.809 36.3906 181.691 35.9485 186.008 33.4678C192.26 29.8742 195.761 23.8414 194.86 18.2108C193.454 9.41556 188.582 6.12519 180.69 8.6377C173.505 10.9247 172.201 11.0312 164.481 9.95976C160.359 9.38746 154.388 9.09613 150.987 9.30243C145.618 9.62703 144.887 9.52277 144.887 8.42697C144.887 7.31342 143.977 7.2173 136.187 7.51084C124.639 7.94562 120.449 9.72019 116.694 15.7663L115.316 17.9846L115.314 12.6238L115.311 7.26314H111.104H106.899L108.516 8.77079C110.026 10.1771 110.135 10.9454 110.135 20.2146C110.135 30.0443 110.115 30.1641 108.253 31.3841C105.6 33.1217 101.726 31.827 97.7247 27.8645C93.4709 23.6536 92.4978 20.2531 94.2169 15.6059C94.9364 13.6605 95.9915 11.321 96.5623 10.4056C97.1324 9.49098 97.3143 8.74196 96.966 8.74196C95.5715 8.74196 90.8815 14.3134 89.7236 17.3457C88.6381 20.1887 88.2174 20.5754 86.1884 20.5984C84.9218 20.6132 83.0541 21.1004 82.0374 21.6816C80.1896 22.7375 80.1904 22.7382 82.9972 22.7648L85.8047 22.7907L85.5851 27.412L85.3647 32.0333L82.2637 32.2588C78.4631 32.5346 75.3643 31.0314 72.7978 27.6664C70.3784 24.4943 69.7721 20.8668 70.9056 16.3423C72.0687 11.6996 74.179 9.48137 77.4331 9.48137C80.8462 9.48137 84.8302 11.4748 86.0428 13.7899L87.0358 15.685L88.6551 12.5115C89.5454 10.7665 90.0785 9.14198 89.8389 8.90241C89.0278 8.09128 80.2081 7.30233 76.8615 7.74154C72.2565 8.34564 68.0959 10.8227 66.5017 13.9104L65.1612 16.5057L64.631 11.8844L64.1008 7.26314H59.9897H55.8794L57.4972 8.77079C59.0071 10.1771 59.1158 10.9454 59.1158 20.2146C59.1158 30.0443 59.0958 30.1641 57.234 31.3841C55.6561 32.4178 54.896 32.4806 52.5299 31.7716C49.2661 30.7933 43.1749 24.7176 42.4125 21.6786C41.8462 19.4227 43.058 14.6824 45.1055 11.145C46.92 8.00994 45.9632 8.09276 42.7024 11.3528L40.0915 13.9637L38.8249 12.0308C36.9468 9.1649 33.3785 8.00255 26.4576 8.00255C21.7232 8.00255 20.5682 8.19997 21.2581 8.88984C21.8208 9.45253 22.1454 12.2911 22.1454 16.6536V23.5301L20.637 22.0217C18.3626 19.7473 15.5402 18.8467 11.2391 19.0212L7.35721 19.1787V15.0691V10.9602H9.78025C13.5527 10.9602 15.6918 12.8442 15.3399 15.8573C14.9916 18.8386 15.6622 18.9894 18.16 16.4917C20.4773 14.1744 20.2909 11.2552 17.7089 9.42961C16.2841 8.42179 13.9542 8.05357 7.54206 7.82213C-0.603996 7.52859 -0.745963 7.55077 0.702537 8.90019ZM178.271 12.49C176.659 14.221 175.942 17.0662 175.942 21.7393C175.942 27.3151 178.08 30.1397 183.142 31.251C185.095 31.6806 185.843 31.4425 187.382 29.9031C188.935 28.3503 189.252 27.3351 189.252 23.9094C189.252 14.5914 182.68 7.75781 178.271 12.49ZM7.35721 27.2272V33.1424H10.5847C16.2301 33.1424 19.2299 29.2324 16.9104 24.898C15.9935 23.1856 11.9807 21.3119 9.22939 21.3119C7.38235 21.3119 7.35721 21.3903 7.35721 27.2272Z" fill="#0D0D0D"/>
</svg>
