<svg width="78" height="55" viewBox="0 0 78 55" fill="none" xmlns="http://www.w3.org/2000/svg">
<path d="M72.6282 0H4.9359C3.62682 0 2.37135 0.520031 1.44569 1.44569C0.520031 2.37135 0 3.62682 0 4.9359V50.0641C0 51.3732 0.520031 52.6286 1.44569 53.5543C2.37135 54.48 3.62682 55 4.9359 55H72.6282C73.9373 55 75.1927 54.48 76.1184 53.5543C77.0441 52.6286 77.5641 51.3732 77.5641 50.0641V4.9359C77.5641 3.62682 77.0441 2.37135 76.1184 1.44569C75.1927 0.520031 73.9373 0 72.6282 0ZM4.9359 4.23077H72.6282C72.8152 4.23077 72.9946 4.30506 73.1268 4.4373C73.259 4.56953 73.3333 4.74889 73.3333 4.9359V14.1026H4.23077V4.9359C4.23077 4.74889 4.30506 4.56953 4.4373 4.4373C4.56953 4.30506 4.74889 4.23077 4.9359 4.23077ZM72.6282 50.7692H4.9359C4.74889 50.7692 4.56953 50.6949 4.4373 50.5627C4.30506 50.4305 4.23077 50.2511 4.23077 50.0641V18.3333H73.3333V50.0641C73.3333 50.2511 73.259 50.4305 73.1268 50.5627C72.9946 50.6949 72.8152 50.7692 72.6282 50.7692ZM66.2821 41.6026C66.2821 42.1636 66.0592 42.7017 65.6625 43.0984C65.2658 43.4951 64.7277 43.7179 64.1667 43.7179H52.8846C52.3236 43.7179 51.7855 43.4951 51.3888 43.0984C50.9921 42.7017 50.7692 42.1636 50.7692 41.6026C50.7692 41.0415 50.9921 40.5035 51.3888 40.1068C51.7855 39.71 52.3236 39.4872 52.8846 39.4872H64.1667C64.7277 39.4872 65.2658 39.71 65.6625 40.1068C66.0592 40.5035 66.2821 41.0415 66.2821 41.6026ZM43.7179 41.6026C43.7179 42.1636 43.4951 42.7017 43.0984 43.0984C42.7017 43.4951 42.1636 43.7179 41.6026 43.7179H35.9615C35.4005 43.7179 34.8624 43.4951 34.4657 43.0984C34.069 42.7017 33.8462 42.1636 33.8462 41.6026C33.8462 41.0415 34.069 40.5035 34.4657 40.1068C34.8624 39.71 35.4005 39.4872 35.9615 39.4872H41.6026C42.1636 39.4872 42.7017 39.71 43.0984 40.1068C43.4951 40.5035 43.7179 41.0415 43.7179 41.6026Z" fill="black"/>
</svg>
