<svg width="30" height="28" viewBox="0 0 30 28" fill="none" xmlns="http://www.w3.org/2000/svg">
<path d="M10.115 28C11.2975 28 12.256 27.0414 12.256 25.8589C12.256 24.6764 11.2975 23.7178 10.115 23.7178C8.93247 23.7178 7.97388 24.6764 7.97388 25.8589C7.97388 27.0414 8.93247 28 10.115 28Z" fill="black"/>
<path d="M23.1231 28C24.3056 28 25.2642 27.0414 25.2642 25.8589C25.2642 24.6764 24.3056 23.7178 23.1231 23.7178C21.9406 23.7178 20.982 24.6764 20.982 25.8589C20.982 27.0414 21.9406 28 23.1231 28Z" fill="black"/>
<path d="M28.9088 2.65904C28.8202 2.54988 28.7086 2.46169 28.5819 2.40082C28.4552 2.33994 28.3166 2.30788 28.176 2.30695H8.36385L8.98239 4.21014H26.9294L24.3887 15.6293H10.1148L5.766 1.8597C5.71896 1.71359 5.63727 1.58103 5.52791 1.47333C5.41855 1.36562 5.28476 1.28597 5.13795 1.24117L1.23641 0.0421587C1.11644 0.005294 0.990391 -0.00758051 0.865449 0.00427014C0.740507 0.0161208 0.619122 0.0524646 0.508226 0.111226C0.284261 0.229901 0.116612 0.432686 0.0421601 0.674969C-0.0322915 0.917252 -0.0074471 1.17919 0.111228 1.40315C0.229903 1.62712 0.432687 1.79477 0.67497 1.86922L4.09119 2.91597L8.45901 16.7141L6.89839 17.9892L6.77469 18.1129C6.38866 18.5578 6.16985 19.1233 6.15596 19.7122C6.14206 20.301 6.33395 20.8763 6.69856 21.3388C6.95793 21.6542 7.28751 21.9046 7.66094 22.0698C8.03438 22.2351 8.4413 22.3106 8.84916 22.2904H24.7313C24.9836 22.2904 25.2257 22.1902 25.4041 22.0117C25.5826 21.8333 25.6829 21.5912 25.6829 21.3388C25.6829 21.0865 25.5826 20.8444 25.4041 20.666C25.2257 20.4875 24.9836 20.3872 24.7313 20.3872H8.69691C8.58733 20.3835 8.48057 20.3516 8.38693 20.2945C8.2933 20.2375 8.21596 20.1572 8.16239 20.0616C8.10882 19.9659 8.08082 19.858 8.08111 19.7484C8.08139 19.6387 8.10995 19.531 8.16401 19.4356L10.4574 17.5325H25.15C25.3699 17.5378 25.585 17.4668 25.7585 17.3315C25.932 17.1961 26.0532 17.0049 26.1016 16.7902L29.1181 3.4679C29.1471 3.32603 29.1432 3.17943 29.107 3.03926C29.0707 2.8991 29.0029 2.76905 28.9088 2.65904Z" fill="black"/>
</svg>
