<svg width="29" height="29" viewBox="0 0 29 29" fill="none" xmlns="http://www.w3.org/2000/svg">
<path d="M19.3334 2.11458V3.625H25.6772C25.9175 3.625 26.148 3.72048 26.318 3.89043C26.4879 4.06039 26.5834 4.2909 26.5834 4.53125C26.5834 4.7716 26.4879 5.00211 26.318 5.17207C26.148 5.34202 25.9175 5.4375 25.6772 5.4375H3.323C3.08265 5.4375 2.85214 5.34202 2.68218 5.17207C2.51223 5.00211 2.41675 4.7716 2.41675 4.53125C2.41675 4.2909 2.51223 4.06039 2.68218 3.89043C2.85214 3.72048 3.08265 3.625 3.323 3.625H9.66675V2.11458C9.66675 0.947333 10.6141 0 11.7813 0H17.2188C18.3861 0 19.3334 0.947333 19.3334 2.11458ZM11.4792 2.11458V3.625H17.5209V2.11458C17.5209 2.03447 17.4891 1.95763 17.4324 1.90098C17.3758 1.84433 17.2989 1.8125 17.2188 1.8125H11.7813C11.7012 1.8125 11.6244 1.84433 11.5677 1.90098C11.5111 1.95763 11.4792 2.03447 11.4792 2.11458ZM6.03812 7.46508C6.02779 7.34577 5.99392 7.2297 5.93845 7.12356C5.88299 7.01742 5.80704 6.92332 5.715 6.84671C5.62295 6.7701 5.51664 6.7125 5.40219 6.67722C5.28775 6.64195 5.16745 6.6297 5.04825 6.6412C4.92904 6.6527 4.8133 6.68771 4.70771 6.7442C4.60212 6.8007 4.50877 6.87757 4.43307 6.97036C4.35736 7.06315 4.30079 7.17002 4.26664 7.2848C4.23249 7.39959 4.22142 7.52 4.23408 7.63908L5.94025 25.2783C5.99128 25.8012 6.23509 26.2863 6.6242 26.6392C7.01331 26.9921 7.51985 27.1876 8.04516 27.1875H20.955C21.4805 27.1876 21.9872 26.9919 22.3763 26.6388C22.7655 26.2856 23.0092 25.8002 23.0599 25.2771L24.7673 7.63908C24.7904 7.39969 24.7174 7.16094 24.5644 6.97535C24.4115 6.78976 24.1911 6.67253 23.9517 6.64946C23.7123 6.62639 23.4735 6.69935 23.2879 6.85231C23.1023 7.00527 22.9851 7.22569 22.962 7.46508L21.2559 25.1019C21.2487 25.1767 21.2138 25.2461 21.1582 25.2966C21.1026 25.3471 21.0301 25.375 20.955 25.375H8.04516C7.97004 25.375 7.89758 25.3471 7.84195 25.2966C7.78632 25.2461 7.7515 25.1767 7.74429 25.1019L6.03812 7.46508Z" fill="#404040"/>
<path d="M11.124 9.06369C11.2428 9.05666 11.3619 9.07312 11.4744 9.11214C11.5869 9.15115 11.6906 9.21195 11.7796 9.29107C11.8686 9.37018 11.9411 9.46605 11.993 9.57321C12.0449 9.68036 12.0752 9.7967 12.0822 9.91556L12.6863 20.1864C12.7004 20.4266 12.6185 20.6625 12.4587 20.8424C12.2988 21.0222 12.074 21.1311 11.8338 21.1452C11.5937 21.1593 11.3577 21.0774 11.1779 20.9175C10.9981 20.7577 10.8891 20.5329 10.875 20.2927L10.2709 10.0219C10.2638 9.90303 10.2803 9.78395 10.3193 9.67146C10.3583 9.55896 10.4191 9.45525 10.4982 9.36627C10.5774 9.27728 10.6732 9.20475 10.7804 9.15284C10.8875 9.10092 11.0039 9.07062 11.1227 9.06369H11.124ZM18.728 10.0219C18.7421 9.7817 18.6602 9.54575 18.5003 9.36594C18.3405 9.18612 18.1157 9.07718 17.8755 9.06308C17.6353 9.04898 17.3994 9.13088 17.2196 9.29075C17.0397 9.45062 16.9308 9.67537 16.9167 9.91556L16.3125 20.1864C16.2984 20.4264 16.3803 20.6622 16.54 20.8419C16.6998 21.0216 16.9244 21.1305 17.1644 21.1446C17.4044 21.1587 17.6402 21.0769 17.8199 20.9171C17.9996 20.7574 18.1085 20.5328 18.1226 20.2927L18.728 10.0219Z" fill="#404040"/>
</svg>
