<svg width="75" height="59" viewBox="0 0 75 59" fill="none" xmlns="http://www.w3.org/2000/svg">
<path d="M24.11 43.25L51.61 15.75M2 51.5C2 52.9568 2.57795 54.3541 3.60702 55.3852C4.63609 56.4163 6.03222 56.9971 7.489 57H68.011C69.4678 56.9971 70.8639 56.4163 71.893 55.3852C72.9221 54.3541 73.5 52.9568 73.5 51.5V40.313C71.1252 39.669 69.0285 38.2612 67.5336 36.3069C66.0386 34.3526 65.2286 31.9605 65.2286 29.5C65.2286 27.0395 66.0386 24.6474 67.5336 22.6931C69.0285 20.7388 71.1252 19.331 73.5 18.687V7.5C73.5 6.04321 72.9221 4.64593 71.893 3.6148C70.8639 2.58366 69.4678 2.00291 68.011 2H7.489C6.03222 2.00291 4.63609 2.58366 3.60702 3.6148C2.57795 4.64593 2 6.04321 2 7.5V18.665C4.39371 19.2946 6.51155 20.6991 8.02282 22.6593C9.5341 24.6194 10.3537 27.0249 10.3537 29.5C10.3537 31.9751 9.5341 34.3806 8.02282 36.3407C6.51155 38.3009 4.39371 39.7054 2 40.335V51.5Z" stroke="black" stroke-width="3" stroke-linecap="round" stroke-linejoin="round"/>
<path d="M26.86 21.25C27.5893 21.25 28.2888 20.9603 28.8045 20.4445C29.3203 19.9288 29.61 19.2293 29.61 18.5C29.61 17.7707 29.3203 17.0712 28.8045 16.5555C28.2888 16.0397 27.5893 15.75 26.86 15.75C26.1306 15.75 25.4312 16.0397 24.9154 16.5555C24.3997 17.0712 24.11 17.7707 24.11 18.5C24.11 19.2293 24.3997 19.9288 24.9154 20.4445C25.4312 20.9603 26.1306 21.25 26.86 21.25ZM48.86 43.25C49.5893 43.25 50.2888 42.9603 50.8045 42.4445C51.3203 41.9288 51.61 41.2293 51.61 40.5C51.61 39.7707 51.3203 39.0712 50.8045 38.5555C50.2888 38.0397 49.5893 37.75 48.86 37.75C48.1306 37.75 47.4312 38.0397 46.9154 38.5555C46.3997 39.0712 46.11 39.7707 46.11 40.5C46.11 41.2293 46.3997 41.9288 46.9154 42.4445C47.4312 42.9603 48.1306 43.25 48.86 43.25Z" stroke="black" stroke-width="3" stroke-linecap="round" stroke-linejoin="round"/>
</svg>
