<svg width="29" height="29" viewBox="0 0 29 29" fill="none" xmlns="http://www.w3.org/2000/svg">
<path d="M28.467 7.28241L21.7176 0.533042C21.5492 0.364086 21.3492 0.230028 21.1289 0.138557C20.9086 0.0470858 20.6724 0 20.4339 0C20.1953 0 19.9592 0.0470858 19.7389 0.138557C19.5186 0.230028 19.3185 0.364086 19.1501 0.533042L0.531619 19.1576C0.362608 19.3252 0.228582 19.5248 0.137322 19.7446C0.046062 19.9645 -0.000613228 20.2003 6.08307e-06 20.4383V27.1877C6.08307e-06 27.6683 0.190946 28.1293 0.530821 28.4692C0.870696 28.8091 1.33167 29 1.81232 29H8.56169C9.04197 29 9.5026 28.8093 9.84239 28.4699L28.4655 9.84533C28.6344 9.67696 28.7685 9.47689 28.8599 9.2566C28.9514 9.03631 28.9985 8.80013 28.9985 8.5616C28.9985 8.32308 28.9514 8.0869 28.8599 7.86661C28.7685 7.64632 28.6344 7.44625 28.4655 7.27788L28.467 7.28241ZM1.45892 19.9384L15.1026 6.29319L18.4766 9.66863L4.83285 23.3123L1.45892 19.9384ZM1.20822 27.1877V21.3973L4.40544 24.5946L7.60267 27.7918H1.81232C1.6521 27.7918 1.49845 27.7281 1.38516 27.6149C1.27186 27.5016 1.20822 27.3479 1.20822 27.1877ZM9.06159 27.5411L5.68766 24.1672L19.3314 10.5219L22.7053 13.8974L9.06159 27.5411ZM27.6122 8.99052L23.5601 13.0426L15.9575 5.43989L20.008 1.38785C20.0641 1.33168 20.1307 1.28713 20.204 1.25672C20.2774 1.22632 20.356 1.21067 20.4354 1.21067C20.5148 1.21067 20.5934 1.22632 20.6667 1.25672C20.7401 1.28713 20.8067 1.33168 20.8628 1.38785L27.6122 8.13571C27.6683 8.19181 27.7129 8.25844 27.7433 8.33178C27.7737 8.40511 27.7893 8.48372 27.7893 8.56311C27.7893 8.6425 27.7737 8.72111 27.7433 8.79445C27.7129 8.86779 27.6683 8.93441 27.6122 8.99052Z" fill="black"/>
</svg>
