<svg width="25" height="25" viewBox="0 0 25 25" fill="none" xmlns="http://www.w3.org/2000/svg">
<path d="M1.39063 0H23.625C24.3906 0 25 0.609375 25 1.375V23.625C25 24.375 24.3906 25 23.625 25H17.25V15.3125H20.5L20.9844 11.5469H17.25V9.14062C17.25 8.04688 17.5625 7.29688 19.125 7.29688H21.125V3.92188C20.7812 3.875 19.5938 3.78125 18.2188 3.78125C15.3281 3.78125 13.3594 5.53125 13.3594 8.76562V11.5469H10.0938V15.3125H13.3594V25H1.39063C1.0245 25 0.673136 24.8557 0.412788 24.5982C0.15244 24.3408 0.00411377 23.9911 0 23.625V1.375C0 0.609375 0.625 0 1.39063 0Z" fill="#F2F2F2"/>
</svg>
