<svg width="83" height="55" viewBox="0 0 83 55" fill="none" xmlns="http://www.w3.org/2000/svg">
<path d="M17.6754 35.3508C19.9391 35.3504 22.1335 36.132 23.8871 37.5636C25.6408 38.9951 26.8459 40.9886 27.2987 43.2066H54.9901V3.92787H11.7836C9.70013 3.92787 7.70199 4.75552 6.22876 6.22876C4.75552 7.702 3.92787 9.70013 3.92787 11.7836V43.2066H8.05213C8.50488 40.9886 9.71005 38.9951 11.4637 37.5636C13.2173 36.132 15.4117 35.3504 17.6754 35.3508ZM17.6754 54.9902C15.4117 54.9906 13.2173 54.2089 11.4637 52.7774C9.71005 51.3459 8.50488 49.3524 8.05213 47.1344H0V11.7836C0 8.6584 1.24148 5.66119 3.45134 3.45134C5.66119 1.24148 8.6584 0 11.7836 0H54.9901C56.0319 0 57.031 0.413829 57.7676 1.15045C58.5042 1.88706 58.918 2.88613 58.918 3.92787V11.7836H70.7016L82.4852 27.4951V47.1344H74.4331C73.9823 49.3542 72.778 51.35 71.0242 52.7834C69.2704 54.2169 67.0749 55 64.8098 55C62.5447 55 60.3492 54.2169 58.5954 52.7834C56.8416 51.35 55.6373 49.3542 55.1865 47.1344H27.2987C26.8459 49.3524 25.6408 51.3459 23.8871 52.7774C22.1335 54.2089 19.9391 54.9906 17.6754 54.9902ZM17.6754 39.2787C16.1128 39.2787 14.6142 39.8994 13.5093 41.0044C12.4043 42.1093 11.7836 43.6079 11.7836 45.1705C11.7836 46.7331 12.4043 48.2317 13.5093 49.3366C14.6142 50.4415 16.1128 51.0623 17.6754 51.0623C19.238 51.0623 20.7366 50.4415 21.8415 49.3366C22.9465 48.2317 23.5672 46.7331 23.5672 45.1705C23.5672 43.6079 22.9465 42.1093 21.8415 41.0044C20.7366 39.8994 19.238 39.2787 17.6754 39.2787ZM64.8098 35.3508C67.0735 35.3504 69.2679 36.132 71.0215 37.5636C72.7752 38.9951 73.9803 40.9886 74.4331 43.2066H78.5574V28.752L77.6147 27.4951H58.918V37.3147C60.5677 36.0971 62.6102 35.3508 64.8098 35.3508ZM64.8098 39.2787C63.2472 39.2787 61.7486 39.8994 60.6437 41.0044C59.5388 42.1093 58.918 43.6079 58.918 45.1705C58.918 46.7331 59.5388 48.2317 60.6437 49.3366C61.7486 50.4415 63.2472 51.0623 64.8098 51.0623C66.3724 51.0623 67.871 50.4415 68.9759 49.3366C70.0809 48.2317 70.7016 46.7331 70.7016 45.1705C70.7016 43.6079 70.0809 42.1093 68.9759 41.0044C67.871 39.8994 66.3724 39.2787 64.8098 39.2787ZM58.918 15.7115V23.5672H74.6295L68.7377 15.7115H58.918Z" fill="#262626"/>
</svg>
