<svg width="40" height="40" viewBox="0 0 40 40" fill="none" xmlns="http://www.w3.org/2000/svg">
<path d="M26.25 0L40 6.875V22.207L37.5 20.957V9.66797L27.5 14.668V19.707L25 20.957V14.668L15 9.66797V14.1016L12.5 12.8516V6.875L26.25 0ZM26.25 12.5L29.707 10.7617L20.6641 5.58594L16.543 7.65625L26.25 12.5ZM32.4023 9.43359L35.957 7.65625L26.25 2.79297L23.3398 4.25781L32.4023 9.43359ZM22.5 22.207L20 23.457V23.4375L12.5 27.1875V36.0742L20 32.3047V35.1172L11.25 39.4922L0 33.8477V20.6445L11.25 15.0195L22.5 20.6445V22.207ZM10 36.0742V27.1875L2.5 23.4375V32.3047L10 36.0742ZM11.25 25.0195L18.457 21.4258L11.25 17.8125L4.04297 21.4258L11.25 25.0195ZM22.5 25L31.25 20.625L40 25V35.293L31.25 39.668L22.5 35.293V25ZM30 36.25V30.293L25 27.793V33.75L30 36.25ZM37.5 33.75V27.793L32.5 30.293V36.25L37.5 33.75ZM31.25 28.125L35.957 25.7617L31.25 23.418L26.543 25.7617L31.25 28.125Z" fill="#F2F2F2"/>
</svg>
