<svg width="40" height="26" viewBox="0 0 40 26" fill="none" xmlns="http://www.w3.org/2000/svg">
<mask id="path-1-inside-1_338_74" fill="white">
<path d="M17.5132 17.5281C19.3138 16.5075 20.726 14.9196 21.5295 13.0121C22.333 11.1046 22.4825 8.98481 21.9547 6.98342C21.427 4.98204 20.2516 3.21162 18.612 1.94835C16.9725 0.685073 14.9609 0 12.8911 0C10.8213 0 8.80968 0.685073 7.1701 1.94835C5.53053 3.21162 4.35518 4.98204 3.82743 6.98342C3.29967 8.98481 3.44918 11.1046 4.25264 13.0121C5.0561 14.9196 6.46832 16.5075 8.26898 17.5281C4.93166 18.5921 2.06559 20.7786 0.157697 23.7162C0.017109 23.9316 -0.0321603 24.194 0.0207272 24.4457C0.0736148 24.6974 0.224327 24.9178 0.439709 25.0584C0.65509 25.199 0.917499 25.2483 1.16921 25.1954C1.42092 25.1425 1.6413 24.9918 1.78189 24.7764C2.98526 22.9262 4.6317 21.4058 6.57173 20.3533C8.51176 19.3008 10.6839 18.7496 12.8911 18.7496C15.0982 18.7496 17.2704 19.3008 19.2104 20.3533C21.1504 21.4058 22.7969 22.9262 24.0002 24.7764C24.15 24.9683 24.3664 25.0969 24.6066 25.1366C24.8468 25.1763 25.0931 25.1242 25.2966 24.9907C25.5001 24.8571 25.646 24.652 25.7052 24.4159C25.7645 24.1798 25.7328 23.93 25.6164 23.7162C23.7105 20.7801 20.8475 18.5937 17.5132 17.5281ZM5.45694 9.37804C5.45694 7.90771 5.89294 6.4704 6.70981 5.24786C7.52669 4.02532 8.68774 3.07247 10.0461 2.5098C11.4046 1.94713 12.8993 1.79991 14.3414 2.08676C15.7835 2.3736 17.1081 3.08164 18.1478 4.12132C19.1875 5.161 19.8955 6.48564 20.1824 7.92772C20.4692 9.36979 20.322 10.8646 19.7593 12.223C19.1966 13.5814 18.2438 14.7424 17.0212 15.5593C15.7987 16.3762 14.3614 16.8122 12.8911 16.8122C10.9202 16.8096 9.03079 16.0255 7.63718 14.6319C6.24356 13.2383 5.4595 11.3489 5.45694 9.37804ZM39.557 25.0544C39.3418 25.1948 39.0796 25.2441 38.8281 25.1913C38.5766 25.1386 38.3563 24.9882 38.2156 24.7732C37.0144 22.9227 35.3692 21.4024 33.4299 20.3506C31.4906 19.2988 29.319 18.7491 27.1129 18.7515C26.8557 18.7515 26.6091 18.6493 26.4272 18.4675C26.2454 18.2857 26.1432 18.039 26.1432 17.7818C26.1432 17.5247 26.2454 17.278 26.4272 17.0962C26.6091 16.9143 26.8557 16.8122 27.1129 16.8122C28.2076 16.8111 29.2886 16.5682 30.2786 16.1009C31.2686 15.6337 32.1432 14.9535 32.8398 14.1091C33.5365 13.2646 34.0381 12.2767 34.3087 11.216C34.5794 10.1552 34.6124 9.04781 34.4055 7.97282C34.1986 6.89782 33.7568 5.88179 33.1117 4.99732C32.4666 4.11285 31.6341 3.38177 30.6737 2.8563C29.7134 2.33083 28.6488 2.02396 27.5561 1.95759C26.4634 1.89122 25.3695 2.06701 24.3526 2.47238C24.2341 2.52087 24.1073 2.54544 23.9793 2.54467C23.8513 2.5439 23.7248 2.51781 23.6069 2.46789C23.4891 2.41798 23.3823 2.34523 23.2927 2.25384C23.2031 2.16245 23.1325 2.05424 23.0849 1.93543C23.0374 1.81662 23.0138 1.68957 23.0156 1.56161C23.0173 1.43364 23.0444 1.30729 23.0952 1.18985C23.1461 1.0724 23.2197 0.966177 23.3117 0.877304C23.4038 0.788431 23.5126 0.718665 23.6318 0.672029C25.8375 -0.207341 28.2947 -0.216813 30.5072 0.645527C32.7196 1.50787 34.5223 3.17775 35.5511 5.31784C36.5799 7.45794 36.7581 9.90873 36.0498 12.1752C35.3414 14.4416 33.7993 16.3547 31.735 17.5281C35.0723 18.5921 37.9384 20.7786 39.8463 23.7162C39.9849 23.9321 40.0323 24.1942 39.9781 24.4451C39.9239 24.6959 39.7724 24.915 39.557 25.0544Z"/>
</mask>
<path d="M17.5132 17.5281C19.3138 16.5075 20.726 14.9196 21.5295 13.0121C22.333 11.1046 22.4825 8.98481 21.9547 6.98342C21.427 4.98204 20.2516 3.21162 18.612 1.94835C16.9725 0.685073 14.9609 0 12.8911 0C10.8213 0 8.80968 0.685073 7.1701 1.94835C5.53053 3.21162 4.35518 4.98204 3.82743 6.98342C3.29967 8.98481 3.44918 11.1046 4.25264 13.0121C5.0561 14.9196 6.46832 16.5075 8.26898 17.5281C4.93166 18.5921 2.06559 20.7786 0.157697 23.7162C0.017109 23.9316 -0.0321603 24.194 0.0207272 24.4457C0.0736148 24.6974 0.224327 24.9178 0.439709 25.0584C0.65509 25.199 0.917499 25.2483 1.16921 25.1954C1.42092 25.1425 1.6413 24.9918 1.78189 24.7764C2.98526 22.9262 4.6317 21.4058 6.57173 20.3533C8.51176 19.3008 10.6839 18.7496 12.8911 18.7496C15.0982 18.7496 17.2704 19.3008 19.2104 20.3533C21.1504 21.4058 22.7969 22.9262 24.0002 24.7764C24.15 24.9683 24.3664 25.0969 24.6066 25.1366C24.8468 25.1763 25.0931 25.1242 25.2966 24.9907C25.5001 24.8571 25.646 24.652 25.7052 24.4159C25.7645 24.1798 25.7328 23.93 25.6164 23.7162C23.7105 20.7801 20.8475 18.5937 17.5132 17.5281ZM5.45694 9.37804C5.45694 7.90771 5.89294 6.4704 6.70981 5.24786C7.52669 4.02532 8.68774 3.07247 10.0461 2.5098C11.4046 1.94713 12.8993 1.79991 14.3414 2.08676C15.7835 2.3736 17.1081 3.08164 18.1478 4.12132C19.1875 5.161 19.8955 6.48564 20.1824 7.92772C20.4692 9.36979 20.322 10.8646 19.7593 12.223C19.1966 13.5814 18.2438 14.7424 17.0212 15.5593C15.7987 16.3762 14.3614 16.8122 12.8911 16.8122C10.9202 16.8096 9.03079 16.0255 7.63718 14.6319C6.24356 13.2383 5.4595 11.3489 5.45694 9.37804ZM39.557 25.0544C39.3418 25.1948 39.0796 25.2441 38.8281 25.1913C38.5766 25.1386 38.3563 24.9882 38.2156 24.7732C37.0144 22.9227 35.3692 21.4024 33.4299 20.3506C31.4906 19.2988 29.319 18.7491 27.1129 18.7515C26.8557 18.7515 26.6091 18.6493 26.4272 18.4675C26.2454 18.2857 26.1432 18.039 26.1432 17.7818C26.1432 17.5247 26.2454 17.278 26.4272 17.0962C26.6091 16.9143 26.8557 16.8122 27.1129 16.8122C28.2076 16.8111 29.2886 16.5682 30.2786 16.1009C31.2686 15.6337 32.1432 14.9535 32.8398 14.1091C33.5365 13.2646 34.0381 12.2767 34.3087 11.216C34.5794 10.1552 34.6124 9.04781 34.4055 7.97282C34.1986 6.89782 33.7568 5.88179 33.1117 4.99732C32.4666 4.11285 31.6341 3.38177 30.6737 2.8563C29.7134 2.33083 28.6488 2.02396 27.5561 1.95759C26.4634 1.89122 25.3695 2.06701 24.3526 2.47238C24.2341 2.52087 24.1073 2.54544 23.9793 2.54467C23.8513 2.5439 23.7248 2.51781 23.6069 2.46789C23.4891 2.41798 23.3823 2.34523 23.2927 2.25384C23.2031 2.16245 23.1325 2.05424 23.0849 1.93543C23.0374 1.81662 23.0138 1.68957 23.0156 1.56161C23.0173 1.43364 23.0444 1.30729 23.0952 1.18985C23.1461 1.0724 23.2197 0.966177 23.3117 0.877304C23.4038 0.788431 23.5126 0.718665 23.6318 0.672029C25.8375 -0.207341 28.2947 -0.216813 30.5072 0.645527C32.7196 1.50787 34.5223 3.17775 35.5511 5.31784C36.5799 7.45794 36.7581 9.90873 36.0498 12.1752C35.3414 14.4416 33.7993 16.3547 31.735 17.5281C35.0723 18.5921 37.9384 20.7786 39.8463 23.7162C39.9849 23.9321 40.0323 24.1942 39.9781 24.4451C39.9239 24.6959 39.7724 24.915 39.557 25.0544Z" fill="#F2F2F2"/>
<path d="M17.5132 17.5281L15.5407 14.0482L7.58843 18.5556L16.2955 21.3383L17.5132 17.5281ZM8.26898 17.5281L9.48395 21.3391L18.2014 18.56L10.2414 14.0482L8.26898 17.5281ZM0.157697 23.7162L3.50729 25.9026L3.51228 25.8949L0.157697 23.7162ZM1.78189 24.7764L5.13148 26.9628L5.13506 26.9573L1.78189 24.7764ZM12.8911 18.7496V22.7496V18.7496ZM24.0002 24.7764L20.6471 26.9573L20.7408 27.1014L20.8466 27.237L24.0002 24.7764ZM25.6164 23.7162L29.1294 21.8035L29.0556 21.6679L28.9715 21.5384L25.6164 23.7162ZM5.45694 9.37804H1.45693L1.45694 9.38325L5.45694 9.37804ZM12.8911 16.8122L12.8859 20.8122H12.8911V16.8122ZM39.557 25.0544L37.3845 21.6957L37.3777 21.7001L37.371 21.7045L39.557 25.0544ZM38.2156 24.7732L34.8605 26.9512L34.8683 26.963L38.2156 24.7732ZM27.1129 18.7515V22.7515L27.1172 22.7515L27.1129 18.7515ZM27.1129 16.8122V20.8122L27.1169 20.8122L27.1129 16.8122ZM24.3526 2.47238L22.8714 -1.24327L22.8541 -1.23638L22.8369 -1.22933L24.3526 2.47238ZM23.6318 0.672029L25.0894 4.39699L25.1013 4.39234L25.1131 4.38763L23.6318 0.672029ZM31.735 17.5281L29.7584 14.0506L21.8169 18.5645L30.52 21.3391L31.735 17.5281ZM39.8463 23.7162L43.212 21.5549L43.2065 21.5462L43.2008 21.5375L39.8463 23.7162ZM19.4856 21.008C22.0546 19.5518 24.0695 17.2863 25.2158 14.5648L17.8432 11.4594C17.3826 12.5528 16.573 13.4631 15.5407 14.0482L19.4856 21.008ZM25.2158 14.5648C26.3621 11.8433 26.5755 8.81895 25.8225 5.9635L18.0869 8.00334C18.3895 9.15066 18.3038 10.3659 17.8432 11.4594L25.2158 14.5648ZM25.8225 5.9635C25.0695 3.10806 23.3926 0.582131 21.0534 -1.22023L16.1707 5.11692C17.1106 5.8411 17.7844 6.85602 18.0869 8.00334L25.8225 5.9635ZM21.0534 -1.22023C18.7141 -3.02258 15.8441 -4 12.8911 -4V4C14.0776 4 15.2308 4.39273 16.1707 5.11692L21.0534 -1.22023ZM12.8911 -4C9.93801 -4 7.068 -3.02258 4.72876 -1.22023L9.61145 5.11692C10.5514 4.39273 11.7045 4 12.8911 4V-4ZM4.72876 -1.22023C2.38952 0.582131 0.71261 3.10806 -0.0403589 5.9635L7.69521 8.00334C7.99776 6.85602 8.67154 5.8411 9.61145 5.11692L4.72876 -1.22023ZM-0.0403589 5.9635C-0.793328 8.81895 -0.580012 11.8433 0.566311 14.5648L7.93897 11.4594C7.47838 10.3659 7.39267 9.15066 7.69521 8.00334L-0.0403589 5.9635ZM0.566311 14.5648C1.71263 17.2863 3.72749 19.5518 6.29656 21.008L10.2414 14.0482C9.20914 13.4631 8.39957 12.5528 7.93897 11.4594L0.566311 14.5648ZM7.054 13.7171C2.83636 15.0617 -0.785724 17.825 -3.19689 21.5375L3.51228 25.8949C4.91691 23.7322 7.02696 22.1224 9.48395 21.3391L7.054 13.7171ZM-3.19188 21.5298C-3.91234 22.6336 -4.16482 23.9783 -3.8938 25.2682L3.93525 23.6232C4.1005 24.4097 3.94656 25.2296 3.50728 25.9026L-3.19188 21.5298ZM-3.8938 25.2682C-3.62277 26.5581 -2.85042 27.6875 -1.74668 28.408L2.6261 21.7088C3.29908 22.1481 3.77 22.8367 3.93525 23.6232L-3.8938 25.2682ZM-1.74668 28.408C-0.642957 29.1284 0.701778 29.3809 1.9917 29.1099L0.346709 21.2808C1.13322 21.1156 1.95314 21.2696 2.6261 21.7088L-1.74668 28.408ZM1.9917 29.1099C3.28162 28.8389 4.41102 28.0665 5.13147 26.9628L-1.56769 22.59C-1.12841 21.917 -0.439789 21.4461 0.346709 21.2808L1.9917 29.1099ZM5.13506 26.9573C5.97521 25.6655 7.12469 24.6041 8.47915 23.8693L4.66431 16.8374C2.13871 18.2076 -0.00468233 20.1868 -1.57128 22.5955L5.13506 26.9573ZM8.47915 23.8693C9.8336 23.1345 11.3501 22.7496 12.8911 22.7496V14.7496C10.0177 14.7496 7.18992 15.4672 4.66431 16.8374L8.47915 23.8693ZM12.8911 22.7496C14.432 22.7496 15.9485 23.1345 17.303 23.8693L21.1178 16.8374C18.5922 15.4672 15.7644 14.7496 12.8911 14.7496V22.7496ZM17.303 23.8693C18.6574 24.6041 19.8069 25.6655 20.6471 26.9573L27.3534 22.5955C25.7868 20.1868 23.6434 18.2076 21.1178 16.8374L17.303 23.8693ZM20.8466 27.237C21.6141 28.2206 22.7234 28.8796 23.9543 29.083L25.2589 21.1901C26.0095 21.3142 26.6859 21.716 27.1538 22.3157L20.8466 27.237ZM23.9543 29.083C25.1851 29.2865 26.4475 29.0195 27.4906 28.3352L23.1026 21.6461C23.7386 21.2288 24.5084 21.0661 25.2589 21.1901L23.9543 29.083ZM27.4906 28.3352C28.5338 27.6509 29.2814 26.5993 29.585 25.3893L21.8255 23.4424C22.0106 22.7046 22.4665 22.0634 23.1026 21.6461L27.4906 28.3352ZM29.585 25.3893C29.8886 24.1792 29.726 22.8993 29.1294 21.8035L22.1033 25.6289C21.7395 24.9608 21.6404 24.1803 21.8255 23.4424L29.585 25.3893ZM28.9715 21.5384C26.5629 17.8277 22.9447 15.0646 18.7308 13.718L16.2955 21.3383C18.7503 22.1228 20.8581 23.7324 22.2612 25.8941L28.9715 21.5384ZM9.45694 9.37804C9.45694 8.69884 9.65835 8.03488 10.0357 7.47014L3.38394 3.02558C2.12754 4.90591 1.45694 7.11658 1.45694 9.37804H9.45694ZM10.0357 7.47014C10.413 6.9054 10.9494 6.46524 11.5769 6.20532L8.51542 -1.18572C6.4261 -0.320294 4.64033 1.14525 3.38394 3.02558L10.0357 7.47014ZM11.5769 6.20532C12.2044 5.9454 12.8949 5.87739 13.561 6.0099L15.1218 -1.83638C12.9038 -2.27757 10.6047 -2.05114 8.51542 -1.18572L11.5769 6.20532ZM13.561 6.0099C14.2272 6.1424 14.8391 6.46947 15.3194 6.94975L20.9762 1.29289C19.3771 -0.3062 17.3398 -1.3952 15.1218 -1.83638L13.561 6.0099ZM15.3194 6.94975C15.7996 7.43002 16.1267 8.04192 16.2592 8.70808L24.1055 7.14735C23.6643 4.92935 22.5753 2.89198 20.9762 1.29289L15.3194 6.94975ZM16.2592 8.70808C16.3917 9.37423 16.3237 10.0647 16.0638 10.6922L23.4548 13.7537C24.3202 11.6644 24.5467 9.36536 24.1055 7.14735L16.2592 8.70808ZM16.0638 10.6922C15.8039 11.3197 15.3637 11.8561 14.799 12.2334L19.2435 18.8852C21.1239 17.6288 22.5894 15.843 23.4548 13.7537L16.0638 10.6922ZM14.799 12.2334C14.2342 12.6108 13.5703 12.8122 12.8911 12.8122V20.8122C15.1525 20.8122 17.3632 20.1416 19.2435 18.8852L14.799 12.2334ZM12.8963 12.8122C11.9845 12.811 11.1103 12.4482 10.4656 11.8035L4.80875 17.4604C6.95124 19.6028 9.85594 20.8082 12.8859 20.8122L12.8963 12.8122ZM10.4656 11.8035C9.82086 11.1588 9.45812 10.2846 9.45693 9.37283L1.45694 9.38325C1.46089 12.4132 2.66627 15.3179 4.80875 17.4604L10.4656 11.8035ZM37.371 21.7045C38.0435 21.2656 38.8628 21.1117 39.6488 21.2764L38.0074 29.1062C39.2964 29.3765 40.64 29.124 41.743 28.4042L37.371 21.7045ZM39.6488 21.2764C40.4348 21.4412 41.1233 21.9113 41.5629 22.5833L34.8683 26.963C35.5893 28.0651 36.7183 28.836 38.0074 29.1062L39.6488 21.2764ZM41.5706 22.5952C40.006 20.1849 37.8629 18.2045 35.3369 16.8345L31.5229 23.8668C32.8754 24.6003 34.0228 25.6606 34.8605 26.9511L41.5706 22.5952ZM35.3369 16.8345C32.8109 15.4644 29.9821 14.7484 27.1085 14.7515L27.1172 22.7515C28.6558 22.7498 30.1704 23.1332 31.5229 23.8668L35.3369 16.8345ZM27.1129 14.7515C27.9166 14.7515 28.6873 15.0708 29.2556 15.6391L23.5988 21.2959C24.5308 22.2279 25.7949 22.7515 27.1129 22.7515V14.7515ZM29.2556 15.6391C29.824 16.2074 30.1432 16.9782 30.1432 17.7818H22.1432C22.1432 19.0999 22.6668 20.3639 23.5988 21.2959L29.2556 15.6391ZM30.1432 17.7818C30.1432 18.5855 29.824 19.3563 29.2556 19.9246L23.5988 14.2678C22.6668 15.1998 22.1432 16.4638 22.1432 17.7818H30.1432ZM29.2556 19.9246C28.6873 20.4929 27.9166 20.8122 27.1129 20.8122V12.8122C25.7949 12.8122 24.5308 13.3358 23.5988 14.2678L29.2556 19.9246ZM27.1169 20.8122C28.8007 20.8105 30.4633 20.4369 31.9859 19.7182L28.5712 12.4836C28.1139 12.6995 27.6145 12.8117 27.1089 12.8122L27.1169 20.8122ZM31.9859 19.7182C33.5086 18.9995 34.8538 17.9534 35.9253 16.6546L29.7544 11.5635C29.4325 11.9536 29.0285 12.2678 28.5712 12.4836L31.9859 19.7182ZM35.9253 16.6546C36.9968 15.3558 37.7683 13.8364 38.1846 12.2049L30.4329 10.2271C30.3079 10.7171 30.0762 11.1734 29.7544 11.5635L35.9253 16.6546ZM38.1846 12.2049C38.6008 10.5734 38.6517 8.87013 38.3334 7.21672L30.4776 8.72891C30.5732 9.2255 30.5579 9.73707 30.4329 10.2271L38.1846 12.2049ZM38.3334 7.21672C38.0151 5.56332 37.3356 4.00061 36.3434 2.64024L29.8799 7.35441C30.1779 7.76298 30.382 8.23233 30.4776 8.72891L38.3334 7.21672ZM36.3434 2.64024C35.3512 1.27987 34.0708 0.155415 32.5937 -0.652782L28.7538 6.36538C29.1974 6.60812 29.5819 6.94584 29.8799 7.35441L36.3434 2.64024ZM32.5937 -0.652782C31.1166 -1.46098 29.4792 -1.93298 27.7986 -2.03505L27.3136 5.95023C27.8183 5.98089 28.3101 6.12265 28.7538 6.36538L32.5937 -0.652782ZM27.7986 -2.03505C26.1179 -2.13713 24.4354 -1.86676 22.8714 -1.24327L25.8337 6.18804C26.3035 6.00078 26.8088 5.91957 27.3136 5.95023L27.7986 -2.03505ZM22.8369 -1.22933C23.207 -1.38087 23.6034 -1.45766 24.0034 -1.45525L23.9552 6.5446C24.6111 6.54855 25.2613 6.42262 25.8683 6.17409L22.8369 -1.22933ZM24.0034 -1.45525C24.4033 -1.45285 24.7988 -1.3713 25.1671 -1.2153L22.0468 6.15109C22.6507 6.40691 23.2993 6.54065 23.9552 6.5446L24.0034 -1.45525ZM25.1671 -1.2153C25.5354 -1.0593 25.8691 -0.831951 26.1491 -0.546364L20.4363 5.05405C20.8955 5.52241 21.4428 5.89526 22.0468 6.15109L25.1671 -1.2153ZM26.1491 -0.546364C26.429 -0.260801 26.6497 0.0773827 26.7984 0.448716L19.3715 3.42214C19.6153 4.03109 19.9772 4.58571 20.4363 5.05405L26.1491 -0.546364ZM26.7984 0.448716C26.947 0.820039 27.0207 1.21709 27.0152 1.61695L19.0159 1.50626C19.0069 2.16205 19.1277 2.8132 19.3715 3.42214L26.7984 0.448716ZM27.0152 1.61695C27.0096 2.01682 26.925 2.41168 26.7661 2.77875L19.4244 -0.399054C19.1638 0.202907 19.025 0.850459 19.0159 1.50626L27.0152 1.61695ZM26.7661 2.77875C26.6073 3.14579 26.3773 3.47774 26.0895 3.75548L20.534 -2.00087C20.062 -1.54539 19.6849 -1.00099 19.4244 -0.399054L26.7661 2.77875ZM26.0895 3.75548C25.8017 4.03323 25.4618 4.25125 25.0894 4.39699L22.1741 -3.05293C21.5634 -2.81392 21.0059 -2.45637 20.534 -2.00087L26.0895 3.75548ZM25.1131 4.38763C26.3776 3.88351 27.7862 3.87808 29.0545 4.37243L31.9598 -3.08138C28.8033 -4.31171 25.2974 -4.2982 22.1504 -3.04357L25.1131 4.38763ZM29.0545 4.37243C30.3228 4.86678 31.3562 5.82406 31.946 7.0509L39.1561 3.58478C37.6883 0.531432 35.1163 -1.85104 31.9598 -3.08138L29.0545 4.37243ZM31.946 7.0509C32.5358 8.27774 32.638 9.68269 32.2319 10.982L39.8677 13.3684C40.8783 10.1348 40.624 6.63814 39.1561 3.58478L31.946 7.0509ZM32.2319 10.982C31.8258 12.2812 30.9418 13.3779 29.7584 14.0506L33.7116 21.0056C36.6569 19.3315 38.8571 16.602 39.8677 13.3684L32.2319 10.982ZM30.52 21.3391C32.977 22.1224 35.087 23.7322 36.4917 25.8949L43.2008 21.5375C40.7897 17.825 37.1676 15.0617 32.9499 13.7171L30.52 21.3391ZM36.4805 25.8776C36.0471 25.2028 35.899 24.3837 36.0684 23.5999L43.8878 25.2903C44.1657 24.0047 43.9227 22.6615 43.212 21.5549L36.4805 25.8776ZM36.0684 23.5999C36.2379 22.816 36.7111 22.1313 37.3845 21.6957L41.7294 28.413C42.8337 27.6987 43.6099 26.5758 43.8878 25.2903L36.0684 23.5999Z" fill="#F2F2F2" mask="url(#path-1-inside-1_338_74)"/>
</svg>
