<svg width="40" height="40" viewBox="0 0 40 40" fill="none" xmlns="http://www.w3.org/2000/svg">
<path d="M4.0375 40C2.8875 40 1.9275 39.615 1.1575 38.845C0.385833 38.0733 0 37.1125 0 35.9625V4.0375C0 2.8875 0.385833 1.9275 1.1575 1.1575C1.9275 0.385833 2.8875 0 4.0375 0H20.0475V2.5H4.0375C3.65417 2.5 3.30167 2.66 2.98 2.98C2.66 3.30167 2.5 3.65417 2.5 4.0375V35.9625C2.5 36.3458 2.66 36.6983 2.98 37.02C3.30167 37.34 3.65417 37.5 4.0375 37.5H20.0475V40H4.0375ZM31.155 28.845L29.4 27.0475L35.1975 21.25H12.98V18.75H35.1975L29.3975 12.95L31.155 11.155L40 20L31.155 28.845Z" fill="#F2F2F2"/>
</svg>
