<svg width="18" height="17" viewBox="0 0 18 17" fill="none" xmlns="http://www.w3.org/2000/svg">
<path fill-rule="evenodd" clip-rule="evenodd" d="M7.74888 0.0285645C6.56327 0.0286655 5.39487 0.312295 4.34117 0.855789C3.28747 1.39928 2.37901 2.18688 1.6916 3.15288C1.00419 4.11887 0.557756 5.23525 0.389545 6.40887C0.221333 7.58249 0.336222 8.77931 0.724627 9.8995C1.11303 11.0197 1.76369 12.0308 2.62231 12.8483C3.48094 13.6659 4.52263 14.2663 5.66048 14.5994C6.79834 14.9325 7.99936 14.9887 9.16334 14.7633C10.3273 14.5378 11.4205 14.0373 12.3517 13.3034L15.5462 16.4979C15.7112 16.6573 15.9321 16.7454 16.1615 16.7435C16.3908 16.7415 16.6102 16.6495 16.7724 16.4873C16.9346 16.3251 17.0266 16.1057 17.0286 15.8764C17.0306 15.647 16.9424 15.426 16.7831 15.2611L13.5886 12.0666C14.4528 10.9702 14.9909 9.65267 15.1413 8.26476C15.2917 6.87685 15.0483 5.47464 14.439 4.21859C13.8297 2.96255 12.8791 1.90342 11.6959 1.16241C10.5128 0.42141 9.14492 0.0284707 7.74888 0.0285645ZM2.06315 7.46375C2.06315 5.9558 2.66218 4.50961 3.72847 3.44333C4.79475 2.37705 6.24093 1.77802 7.74888 1.77802C9.25683 1.77802 10.703 2.37705 11.7693 3.44333C12.8356 4.50961 13.4346 5.9558 13.4346 7.46375C13.4346 8.9717 12.8356 10.4179 11.7693 11.4842C10.703 12.5505 9.25683 13.1495 7.74888 13.1495C6.24093 13.1495 4.79475 12.5505 3.72847 11.4842C2.66218 10.4179 2.06315 8.9717 2.06315 7.46375Z" fill="black"/>
</svg>
