<svg width="22" height="25" viewBox="0 0 22 25" fill="none" xmlns="http://www.w3.org/2000/svg">
<path d="M17.2778 3.91667C16.3284 2.83281 15.8052 1.44088 15.8056 0H11.5139V17.2222C11.4808 18.1542 11.0873 19.037 10.4163 19.6846C9.74536 20.3323 8.84923 20.6943 7.91667 20.6944C5.94444 20.6944 4.30556 19.0833 4.30556 17.0833C4.30556 14.6944 6.61111 12.9028 8.98611 13.6389V9.25C4.19444 8.61111 0 12.3333 0 17.0833C0 21.7083 3.83333 25 7.90278 25C12.2639 25 15.8056 21.4583 15.8056 17.0833V8.34722C17.5458 9.59701 19.6352 10.2676 21.7778 10.2639V5.97222C21.7778 5.97222 19.1667 6.09722 17.2778 3.91667Z" fill="#F2F2F2"/>
</svg>
