<svg width="30" height="28" viewBox="0 0 30 28" fill="none" xmlns="http://www.w3.org/2000/svg">
<path d="M29.0098 26.6846C26.754 22.7865 23.2126 20.0513 19.0976 18.8913C21.0982 17.8743 22.698 16.2132 23.6391 14.1757C24.5801 12.1383 24.8075 9.84331 24.2846 7.66081C23.7618 5.47831 22.5191 3.53551 20.7569 2.14568C18.9948 0.755853 16.816 0 14.5717 0C12.3274 0 10.1486 0.755853 8.38645 2.14568C6.62432 3.53551 5.38163 5.47831 4.85876 7.66081C4.33588 9.84331 4.5633 12.1383 5.50433 14.1757C6.44537 16.2132 8.04518 17.8743 10.0458 18.8913C5.93082 20.0499 2.38944 22.7851 0.133623 26.6846C0.0716812 26.7821 0.0300896 26.891 0.0113504 27.005C-0.00738877 27.1189 -0.00288807 27.2354 0.0245813 27.3476C0.0520507 27.4597 0.101921 27.5652 0.171193 27.6575C0.240464 27.7499 0.327706 27.8273 0.427668 27.8851C0.52763 27.9429 0.638248 27.9798 0.752866 27.9938C0.867484 28.0077 0.983734 27.9983 1.09462 27.9661C1.20551 27.9339 1.30875 27.8797 1.39812 27.8066C1.48749 27.7335 1.56115 27.643 1.61467 27.5407C4.35561 22.8051 9.19826 19.9785 14.5717 19.9785C19.9451 19.9785 24.7878 22.8051 27.5287 27.5407C27.5822 27.643 27.6559 27.7335 27.7453 27.8066C27.8346 27.8797 27.9379 27.9339 28.0488 27.9661C28.1597 27.9983 28.2759 28.0077 28.3905 27.9938C28.5051 27.9798 28.6158 27.9429 28.7157 27.8851C28.8157 27.8273 28.9029 27.7499 28.9722 27.6575C29.0415 27.5652 29.0913 27.4597 29.1188 27.3476C29.1463 27.2354 29.1508 27.1189 29.132 27.005C29.1133 26.891 29.0717 26.7821 29.0098 26.6846ZM6.29609 9.99074C6.29609 8.35398 6.78145 6.75398 7.69078 5.39306C8.60012 4.03215 9.89259 2.97144 11.4048 2.34508C12.9169 1.71872 14.5809 1.55484 16.1862 1.87415C17.7915 2.19347 19.2661 2.98164 20.4234 4.13901C21.5808 5.29637 22.369 6.77094 22.6883 8.37625C23.0076 9.98156 22.8437 11.6455 22.2174 13.1577C21.591 14.6698 20.5303 15.9623 19.1694 16.8717C17.8085 17.781 16.2085 18.2663 14.5717 18.2663C12.3777 18.2637 10.2743 17.391 8.72288 15.8396C7.17148 14.2882 6.29874 12.1848 6.29609 9.99074Z" fill="black"/>
</svg>
