<svg width="73" height="62" viewBox="0 0 73 62" fill="none" xmlns="http://www.w3.org/2000/svg">
<path fill-rule="evenodd" clip-rule="evenodd" d="M15.3309 2.26595C14.3897 3.54484 12.783 5.56415 11.7596 6.75275L9.90013 8.91379L8.04225 6.76479C3.46132 1.46315 2.90259 0.963519 1.96353 1.32415C0.0870521 2.04377 0.24794 3.7019 2.4462 6.30785C3.59977 7.67485 5.20263 9.58143 6.00872 10.5451L7.47477 12.2963L3.68295 17.1503C-0.317356 22.2724 -0.801115 23.6093 0.997657 24.5719C2.46535 25.3572 2.6837 25.1799 6.26045 20.2898C7.95251 17.9766 9.51761 15.884 9.7376 15.6394C9.95813 15.3947 11.816 17.2417 13.8671 19.7436C19.1939 26.2415 18.7555 25.8535 20.0114 25.1815C22.2836 23.9656 21.941 22.9669 17.411 17.6017C13.2328 12.6531 12.4628 11.297 13.4758 10.6715C13.7231 10.5183 15.3397 8.54714 17.0679 6.29088C19.7734 2.75846 20.1264 2.03228 19.6081 1.06421C18.6713 -0.685854 17.1975 -0.272142 15.3309 2.26595ZM59.9899 4.317C58.0872 6.72429 56.3913 8.69435 56.2205 8.6949C56.0504 8.69545 54.5728 7.11283 52.9371 5.1778C49.646 1.28311 48.8137 0.719999 47.7055 1.63936C46.3079 2.7995 46.9427 4.43246 50.2376 8.14876C52.0435 10.1856 53.521 12.021 53.521 12.2273C53.521 12.4336 51.9614 14.6171 50.0554 17.0797C48.1488 19.5417 46.4162 21.8549 46.2044 22.2204C45.8148 22.893 47.6212 25.1131 48.5587 25.1131C48.8388 25.1131 50.5796 23.02 52.4265 20.4616C54.2735 17.9033 56.0755 15.8221 56.4312 15.8364C56.7869 15.8506 58.6787 17.8393 60.6351 20.2559C65.2784 25.9904 65.3353 26.0336 66.6651 24.8302C67.2611 24.2906 67.7492 23.5327 67.7492 23.1464C67.7492 22.76 65.7567 20.0922 63.321 17.2181L58.8927 11.992L62.5001 7.37223C66.1994 2.63479 66.5907 1.73677 65.4508 0.59687C64.242 -0.611978 63.4687 -0.0849838 59.9899 4.317ZM5.72634 43.8604C4.8524 44.499 4.89728 44.7262 6.34746 47.007C9.74799 52.3568 16.1047 57.3066 22.6393 59.6931C26.6204 61.1471 36.4182 61.6779 41.1474 60.6962C48.151 59.2422 56.904 53.3643 60.5673 47.6555C62.6156 44.464 62.6774 43.8407 60.9914 43.4172C59.9461 43.155 59.0946 43.7056 56.4438 46.3564C50.5741 52.226 43.9022 54.6421 33.5249 54.6558C23.5696 54.6695 17.3294 52.4039 11.4089 46.6267C7.66958 42.9783 7.22687 42.7632 5.72634 43.8604Z" fill="white"/>
<path fill-rule="evenodd" clip-rule="evenodd" d="M59.7372 38.4885C58.7472 38.6896 54.1743 40.528 52.5093 41.5658C52.0113 41.8759 51.3035 42.632 52.8529 43.4243C54.8855 44.4641 56.4971 43.877 59.2275 42.73C61.1281 41.9317 62.7614 41.1831 62.8279 41.2176C62.8945 41.2521 63.0223 42.5018 63.361 44.8812C63.9435 48.9718 63.9796 49.6999 65.8198 50.6542C65.8198 50.6542 66.7076 51.1145 67.3816 50.9008C68.0556 50.6871 68.0721 49.5692 68.0721 49.5692C67.8106 45.2054 65.4879 38.2526 64.6692 37.6666C64.1751 37.313 60.3426 38.366 59.7372 38.4885Z" fill="white"/>
</svg>
