<svg width="32" height="28" viewBox="0 0 32 28" fill="none" xmlns="http://www.w3.org/2000/svg">
<path d="M15.5189 28C15.3046 27.9993 15.0965 27.9277 14.9272 27.7963C9.53349 23.6055 5.81804 19.9968 3.2182 16.4365C-0.0995061 11.8868 -0.856177 7.68631 0.967593 3.95147C2.26751 1.28372 6.00236 -0.898984 10.3678 0.371834C12.4491 0.973036 14.2651 2.26233 15.5189 4.02907C16.7728 2.26233 18.5888 0.973036 20.6701 0.371834C25.0258 -0.879583 28.7704 1.28372 30.0703 3.95147C31.8941 7.68631 31.1374 11.8868 27.8197 16.4365C25.2198 19.9968 21.5044 23.6055 16.1107 27.7963C15.9414 27.9277 15.7333 27.9993 15.5189 28ZM7.88434 1.95308C6.84561 1.91265 5.81549 2.15588 4.90455 2.65664C3.99361 3.1574 3.23625 3.89679 2.71376 4.79544C1.21012 7.88033 1.88918 11.3144 4.78975 15.2821C7.87228 19.2581 11.4818 22.7959 15.5189 25.7979C19.5554 22.7988 23.1649 19.2644 26.2481 15.2918C29.1584 11.3145 29.8278 7.88033 28.3241 4.80515C27.354 2.86497 24.4438 1.32252 21.2037 2.23441C20.1647 2.54144 19.2016 3.06259 18.3763 3.76431C17.5509 4.46603 16.8816 5.33279 16.4114 6.30878C16.3383 6.48671 16.214 6.63889 16.0542 6.74599C15.8945 6.85309 15.7064 6.91027 15.5141 6.91027C15.3217 6.91027 15.1337 6.85309 14.974 6.74599C14.8142 6.63889 14.6898 6.48671 14.6168 6.30878C14.1501 5.33034 13.482 4.46157 12.6561 3.75941C11.8302 3.05725 10.8653 2.53756 9.82452 2.23441C9.19393 2.05126 8.54097 1.95658 7.88434 1.95308Z" fill="black"/>
</svg>
